<svg width="20" height="20" viewBox="0 0 20 20" fill="none" xmlns="http://www.w3.org/2000/svg">
<path d="M9.5 1C11.4891 1 13.3968 1.81275 14.8033 3.25946C16.2098 4.70617 17 6.66833 17 8.71429C17 11.908 14.6333 15.2543 10 18.8286C9.85575 18.9398 9.68031 19 9.5 19C9.31969 19 9.14425 18.9398 9 18.8286C4.36667 15.2543 2 11.908 2 8.71429C2 6.66833 2.79018 4.70617 4.1967 3.25946C5.60322 1.81275 7.51088 1 9.5 1ZM9.5 6.14286C8.83696 6.14286 8.20107 6.41377 7.73223 6.89601C7.26339 7.37825 7 8.0323 7 8.71429C7 9.39627 7.26339 10.0503 7.73223 10.5326C8.20107 11.0148 8.83696 11.2857 9.5 11.2857C10.163 11.2857 10.7989 11.0148 11.2678 10.5326C11.7366 10.0503 12 9.39627 12 8.71429C12 8.0323 11.7366 7.37825 11.2678 6.89601C10.7989 6.41377 10.163 6.14286 9.5 6.14286Z" fill="#91CE0D"/>
</svg>
