<svg width="90" height="30" viewBox="0 0 90 30" fill="none" xmlns="http://www.w3.org/2000/svg">
<path d="M62.2451 24.0752C62.2451 23.2838 62.4837 22.6787 62.9608 22.2597C63.438 21.8291 64.0722 21.6138 64.8636 21.6138H74.3774C74.5054 21.6138 74.6102 21.5905 74.6916 21.544C74.7731 21.4858 74.8138 21.3927 74.8138 21.2647C74.8138 21.1367 74.7731 21.0494 74.6916 21.0028C74.6102 20.9447 74.5054 20.9156 74.3774 20.9156H62.5942V18.5415H75.5121C76.3034 18.5415 76.9377 18.7568 77.4148 19.1874C77.892 19.618 78.1306 20.2289 78.1306 21.0203C78.1306 21.8117 77.892 22.4226 77.4148 22.8532C76.9377 23.2838 76.3034 23.4991 75.5121 23.4991H65.9983C65.8703 23.4991 65.7655 23.5282 65.6841 23.5864C65.6026 23.633 65.5619 23.7202 65.5619 23.8483C65.5619 23.9763 65.6026 24.0694 65.6841 24.1276C65.7655 24.1741 65.8703 24.1974 65.9983 24.1974H85.5191V26.5715H64.8636C64.0722 26.5715 63.438 26.3504 62.9608 25.9081C62.4837 25.4775 62.2451 24.8666 62.2451 24.0752ZM74.6392 10.6511H77.956V17.8432H74.6392V10.6511ZM62.5942 15.3993H66.8886C67.6566 15.3993 68.2152 15.2247 68.5644 14.8756C68.9135 14.5265 69.0881 14.0726 69.0881 13.514V13.095H62.5942V10.6511H72.4048V13.514C72.4048 15.0734 71.9509 16.1848 71.0432 16.8482C70.1355 17.5115 68.7448 17.8432 66.8711 17.8432H62.5942V15.3993Z" fill="black"/>
<path d="M60.498 17.2496V23.0801H46.8819C46.1138 23.0801 45.5145 22.8648 45.0839 22.4342C44.6533 22.0036 44.438 21.4043 44.438 20.6362V17.2496H60.498ZM47.7547 20.1125C47.7547 20.4616 47.9293 20.6362 48.2784 20.6362H57.1812V19.6935H47.7547V20.1125ZM44.438 16.307V13.863H60.498V16.307H44.438Z" fill="black"/>
<path d="M39.0265 4H42.3432V19.9204H39.0265V4Z" fill="black"/>
<circle cx="52.0026" cy="9.02758" r="2.90942" fill="black"/>
<circle cx="31.9094" cy="9.02758" r="2.90942" fill="black"/>
<g clip-path="url(#clip0_106_1072)">
<path d="M8.66667 19.303H0V27.9696H8.66667V19.303Z" fill="#1E1E1E"/>
<path d="M8.66948 2.00166L0.00390625 10.6672L17.3351 27.9984L26.0006 19.3328L8.66948 2.00166Z" fill="#C6EF52"/>
<path d="M8.66667 2H0V10.6667H8.66667V2Z" fill="url(#paint0_linear_106_1072)"/>
<path d="M17.3334 10.6667H8.66675V19.3334H17.3334V10.6667Z" fill="#1E1E1E"/>
<path d="M26 19.3335H17.3334V28.0002H26V19.3335Z" fill="url(#paint1_linear_106_1072)"/>
</g>
<defs>
<linearGradient id="paint0_linear_106_1072" x1="2" y1="4" x2="9" y2="10.5" gradientUnits="userSpaceOnUse">
<stop stop-color="#1E1E1E"/>
<stop offset="1" stop-color="#848484"/>
</linearGradient>
<linearGradient id="paint1_linear_106_1072" x1="25" y1="26.5001" x2="17.5" y2="19.5001" gradientUnits="userSpaceOnUse">
<stop stop-color="#1E1E1E"/>
<stop offset="1" stop-color="#848484"/>
</linearGradient>
<clipPath id="clip0_106_1072">
<rect width="26" height="26" fill="white" transform="translate(0 2)"/>
</clipPath>
</defs>
</svg>